<?xml version="1.0" encoding="UTF-8" standalone="no"?>
<!-- Created with Inkscape (http://www.inkscape.org/) -->

<svg
   version="1.1"
   id="svg2"
   width="69.599998"
   height="64.599998"
   viewBox="0 0 69.599998 64.599998"
   sodipodi:docname="shell-seeklogo 2.eps"
   xmlns:inkscape="http://www.inkscape.org/namespaces/inkscape"
   xmlns:sodipodi="http://sodipodi.sourceforge.net/DTD/sodipodi-0.dtd"
   xmlns="http://www.w3.org/2000/svg"
   xmlns:svg="http://www.w3.org/2000/svg">
  <defs
     id="defs6" />
  <sodipodi:namedview
     id="namedview4"
     pagecolor="#ffffff"
     bordercolor="#000000"
     borderopacity="0.25"
     inkscape:showpageshadow="2"
     inkscape:pageopacity="0.0"
     inkscape:pagecheckerboard="0"
     inkscape:deskcolor="#d1d1d1" />
  <g
     id="g8"
     inkscape:groupmode="layer"
     inkscape:label="ink_ext_XXXXXX"
     transform="matrix(1.3333333,0,0,-1.3333333,0,64.6)">
    <g
       id="g10"
       transform="scale(0.1)">
      <path
         d="m 231.25,23.25 h -126 l -12,94 -77.1992,56.25 C 12.6953,189.953 11,206.707 11,223.5 c 0,138.07 111.93,250 250,250 138.07,0 250,-111.93 250,-250 0,-16.793 -1.695,-33.547 -5.051,-50 l -76.699,-56.25 -12,-94 h -127 l -7.191,-5.0742 C 276.648,13.5156 268.926,11 261,11 c -7.926,0 -15.648,2.5156 -22.059,7.1758 z"
         style="fill:none;stroke:#ffffff;stroke-width:17.5;stroke-linecap:butt;stroke-linejoin:miter;stroke-miterlimit:40;stroke-dasharray:none;stroke-opacity:1"
         id="path12" />
      <path
         d="m 231.25,23.25 h -126 l -12,94 -77.1992,56.25 C 12.6953,189.953 11,206.707 11,223.5 c 0,138.07 111.93,250 250,250 138.07,0 250,-111.93 250,-250 0,-16.793 -1.695,-33.547 -5.051,-50 l -76.699,-56.25 -12,-94 h -127 l -7.191,-5.0742 C 276.648,13.5156 268.926,11 261,11 c -7.926,0 -15.648,2.5156 -22.059,7.1758"
         style="fill:#ee2722;fill-opacity:1;fill-rule:nonzero;stroke:none"
         id="path14" />
      <path
         d="m 235.25,67.25 h -92 l -9,75 -76.1445,54.758 C 55.8789,205.66 54.75,214.566 54.75,223.5 c 0,14.926 3.1484,29.688 9.2305,43.316 L 198.25,131.25 67.7227,292.238 c 5.1406,20.93 16.5312,39.805 32.6483,54.114 L 217.25,144.25 113.723,365.527 c 13.433,17.871 32.172,31.055 53.531,37.661 L 239.25,152.25 186.555,413.539 c 15.925,8.981 33.906,13.703 52.191,13.703 3.867,0 7.738,-0.215 11.586,-0.633 L 261.25,155.25 271.668,426.609 c 3.848,0.418 7.719,0.633 11.586,0.633 18.285,0 36.266,-4.722 52.191,-13.703 L 283.25,152.25 354.746,403.188 c 21.359,-6.606 40.098,-19.79 53.531,-37.661 L 304.25,144.25 421.629,346.352 c 16.117,-14.309 27.508,-33.184 32.648,-54.114 L 323.25,131.25 458.02,266.816 c 6.082,-13.628 9.23,-28.39 9.23,-43.316 0,-8.934 -1.129,-17.84 -3.355,-26.492 l -75.645,-54.758 -10,-75 h -92 L 272.766,57.3281 C 269.348,54.8438 265.227,53.5 261,53.5 c -4.227,0 -8.348,1.3438 -11.766,3.8281"
         style="fill:#fcd006;fill-opacity:1;fill-rule:nonzero;stroke:none"
         id="path16" />
      <path
         d="m 235.25,67.25 h -92 l -9,75 -76.1445,54.758 C 55.8789,205.66 54.75,214.566 54.75,223.5 c 0,14.926 3.1484,29.688 9.2305,43.316 L 198.25,131.25 67.7227,292.238 c 5.1406,20.93 16.5312,39.805 32.6483,54.114 L 217.25,144.25 113.723,365.527 c 13.433,17.871 32.172,31.055 53.531,37.661 L 239.25,152.25 186.555,413.539 c 15.925,8.981 33.906,13.703 52.191,13.703 3.867,0 7.738,-0.215 11.586,-0.633 L 261.25,155.25 271.668,426.609 c 3.848,0.418 7.719,0.633 11.586,0.633 18.285,0 36.266,-4.722 52.191,-13.703 L 283.25,152.25 354.746,403.188 c 21.359,-6.606 40.098,-19.79 53.531,-37.661 L 304.25,144.25 421.629,346.352 c 16.117,-14.309 27.508,-33.184 32.648,-54.114 L 323.25,131.25 458.02,266.816 c 6.082,-13.628 9.23,-28.39 9.23,-43.316 0,-8.934 -1.129,-17.84 -3.355,-26.492 l -75.645,-54.758 -10,-75 h -92 L 272.766,57.3281 C 269.348,54.8438 265.227,53.5 261,53.5 c -4.227,0 -8.348,1.3438 -11.766,3.8281 z"
         style="fill:none;stroke:#ee2722;stroke-width:7.5;stroke-linecap:butt;stroke-linejoin:miter;stroke-miterlimit:40;stroke-dasharray:none;stroke-opacity:1"
         id="path18" />
    </g>
  </g>
</svg>
