<svg xmlns="http://www.w3.org/2000/svg" width="150" height="150" viewBox="0 0 150 150" version="1.1"><path d="M 110 31.950 C 106.502 35.494, 103.336 37.361, 95.780 40.334 C 77.994 47.332, 75.346 50.576, 75.849 64.750 C 75.932 67.088, 76.338 68.991, 76.750 68.980 C 77.162 68.969, 78.850 66.667, 80.500 63.864 C 84.473 57.115, 89.381 53.047, 99.676 47.971 C 106.648 44.533, 108.694 42.975, 110.988 39.358 C 113.393 35.565, 115.783 28.217, 114.814 27.593 C 114.642 27.482, 112.475 29.443, 110 31.950 M 4.340 105.750 C 7.069 114.080, 10.980 128.822, 12.033 134.750 L 13.320 142 18.760 142 C 23.571 142, 24.571 141.624, 27.414 138.750 C 29.182 136.963, 33.449 130.325, 36.896 124 C 40.344 117.675, 44.478 110.839, 46.082 108.809 C 47.687 106.778, 49 104.866, 49 104.559 C 49 104.251, 45.959 104, 42.242 104 L 35.484 104 31.300 110.250 C 28.998 113.688, 26.331 118.188, 25.372 120.250 C 24.414 122.313, 23.312 124, 22.924 124 C 22.536 124, 21.225 120.287, 20.010 115.750 C 17.158 105.099, 16.149 104, 9.228 104 C 4.475 104, 3.841 104.227, 4.340 105.750 M 65 104.594 C 65 104.920, 66.327 109.533, 67.948 114.844 C 69.570 120.155, 71.656 128.438, 72.585 133.250 L 74.274 142 79.769 142 C 84.704 142, 85.582 141.661, 88.382 138.671 C 90.097 136.841, 94.650 129.629, 98.500 122.645 C 102.350 115.662, 106.513 108.854, 107.750 107.518 C 108.987 106.181, 110 104.843, 110 104.544 C 110 104.245, 106.926 104, 103.170 104 L 96.339 104 93.293 108.250 C 91.618 110.588, 88.684 115.325, 86.773 118.778 L 83.299 125.056 80.955 116.333 C 78.073 105.610, 76.643 104, 70 104 C 67.250 104, 65 104.267, 65 104.594 M 114.366 105.919 C 108.086 109.748, 102 120.932, 102 128.643 C 102 133.444, 105.188 138.387, 109.651 140.504 C 112.523 141.868, 115.279 142.141, 123.012 141.830 C 131.711 141.481, 133.272 141.120, 137.573 138.461 C 143.477 134.810, 146.740 128.958, 147.620 120.438 C 148.864 108.384, 143.428 104.057, 127 104.026 C 119.385 104.011, 116.878 104.387, 114.366 105.919 M 118.923 117.923 C 115.294 121.552, 114.743 128.257, 117.934 129.965 C 122.084 132.186, 131.196 130.371, 133.021 126.961 C 133.559 125.955, 134 123.291, 134 121.041 C 134 117.570, 133.611 116.803, 131.435 115.975 C 126.500 114.099, 122.055 114.791, 118.923 117.923 M 54.500 118.867 C 45.730 122.865, 43.569 125.997, 40.434 139.250 L 39.783 142 46.923 142 C 51.776 142, 54.178 141.600, 54.423 140.750 C 54.621 140.063, 55.735 135.450, 56.900 130.500 C 58.064 125.550, 59.290 120.487, 59.625 119.250 C 60.356 116.545, 59.702 116.496, 54.500 118.867" stroke="none" fill="#e44414" fill-rule="evenodd"/><path d="M 115.266 13.627 C 112.247 17.866, 105.096 21.348, 93 24.467 C 79.571 27.930, 70.932 32.176, 64.481 38.482 C 57.763 45.050, 55.544 50.733, 56.252 59.556 C 57.258 72.080, 65.233 83.644, 79 92.541 C 86.133 97.150, 95.994 102.340, 96.555 101.779 C 96.750 101.583, 95.854 99.190, 94.563 96.461 C 88.582 83.822, 90.393 77.800, 103.238 67.621 C 112.383 60.374, 117.182 54.571, 119.527 47.923 C 121.069 43.553, 121.625 26, 120.221 26 C 119.793 26, 118.628 29.163, 117.632 33.029 C 116.636 36.896, 114.784 41.283, 113.515 42.779 C 112.247 44.276, 106.875 47.942, 101.578 50.927 C 86.435 59.459, 82.046 63.910, 80.466 72.331 C 79.811 75.823, 79.636 75.980, 78.027 74.524 C 77.074 73.662, 75.016 70.609, 73.455 67.739 C 69.928 61.260, 69.741 55.272, 72.874 49.198 C 75.731 43.662, 81.041 40.314, 96.414 34.359 C 110.160 29.034, 113.826 26.050, 116.494 18.017 C 118.588 11.715, 118.035 9.738, 115.266 13.627 M 46 18.500 C 46 19.343, 46.893 20, 48.040 20 C 50.947 20, 57.635 23.607, 58.394 25.584 C 59.125 27.489, 57.418 30, 55.392 30 C 54.642 30, 52.818 28.171, 51.338 25.935 C 48.133 21.092, 44.484 19, 39.241 19 C 34.147 19, 31.667 20.918, 31.667 24.858 C 31.667 28.720, 32.820 30.073, 34.125 27.742 C 35.587 25.129, 38.608 25.640, 40.924 28.893 C 43.977 33.181, 48.707 43.576, 50.129 49.127 C 51.500 54.475, 52.987 55.567, 53.022 51.250 C 53.051 47.658, 55.960 41.366, 59.570 37.089 C 61.153 35.213, 66.735 30.893, 71.974 27.488 C 77.213 24.084, 82.400 20.255, 83.500 18.980 L 85.500 16.661 83.500 17.431 C 77.064 19.908, 69.092 20.360, 61.312 18.689 C 51.302 16.537, 46 16.472, 46 18.500 M 49.157 110 L 47.131 116 53.883 116 L 60.635 116 62.317 110.662 C 63.243 107.726, 64 105.026, 64 104.662 C 64 104.298, 61.116 104, 57.592 104 L 51.184 104 49.157 110" stroke="none" fill="#040464" fill-rule="evenodd"/></svg>